<?xml version="1.0" encoding="UTF-8"?>
<svg xmlns="http://www.w3.org/2000/svg" id="Layer_1" data-name="Layer 1" viewBox="0 0 316.66 102.32">
  <defs>
    <style>
      .cls-1 {
        fill: #0e0e0e;
        stroke-width: 0px;
      }
    </style>
  </defs>
  <g>
    <g>
      <path class="cls-1" d="m72.73,56.44v-10.45c0-1.64-.76-1.68-2.03-1.93v-.54h6.17c4.22,0,7.25,1.22,7.25,4.51s-2.95,4.88-7.69,4.88c-.39,0-.39-.85,0-.85,3.69,0,4.88-1.61,4.88-3.88,0-2.15-1.05-3.78-4.2-3.78-1.49,0-1.78.39-1.78,1.12v10.91c0,1.64.76,1.68,2.03,1.93v.54h-6.66v-.54c1.27-.24,2.03-.29,2.03-1.93"></path>
      <path class="cls-1" d="m92.14,56.44v-10.45c0-1.64-.76-1.68-2.03-1.93v-.54h6.32c4.15,0,6.78,1.22,6.78,4.25,0,2.37-1.63,3.76-4.73,4.22.88.17,1.59.71,2.27,1.81l1.44,2.29c.81,1.27,1.93,2.66,3.29,2.24v.56c-.46.24-.9.39-1.71.39-1.95,0-3.03-.78-4.08-2.46l-1.76-2.78c-.9-1.42-1.68-1.83-3.2-1.9v4.3c0,1.64.76,1.68,2.03,1.93v.54h-6.66v-.54c1.27-.24,2.03-.29,2.03-1.93m4.2-5.13c3.22,0,4.15-1.44,4.15-3.37s-.95-3.54-3.88-3.54c-1.56,0-1.85.39-1.85,1.12v5.78h1.59Z"></path>
      <path class="cls-1" d="m113.37,56.44v-10.45c0-1.64-.76-1.68-2.03-1.93v-.54h11.93l.22,3.46h-.66c-.22-1.73-.63-2.59-2.39-2.59h-2.17c-1.85,0-2.29.17-2.29,1.85v4.47h1.88c2.95,0,3.25-.56,3.39-2.05h.51v4.93h-.51c-.15-1.49-.44-2.05-3.39-2.05h-1.88v4.61c0,1.68.44,1.85,2.29,1.85h1.66c1.93,0,2.83-.68,3.73-2.78h.66l-1,3.66h-11.98v-.54c1.27-.24,2.03-.29,2.03-1.93"></path>
      <path class="cls-1" d="m130.99,57.66l-.19-3.12h.61c.59,2.22,2.15,3.86,4.34,3.86,1.81,0,3.08-1.22,3.08-2.88s-1.34-2.64-3.44-3.64c-2.05-.98-4.3-2.27-4.3-4.86,0-2.17,1.61-3.88,4.98-3.88,2.49,0,3.66.98,4.39,1.44l.07,3.17h-.56c-.54-2.07-1.68-3.81-3.88-3.81-1.81,0-2.64,1.1-2.64,2.34,0,1.37,1.02,2.24,3.22,3.29,1.83.88,4.71,2.22,4.71,5.17,0,2.71-2.49,4.44-5.54,4.44-2.44,0-4.17-1.07-4.86-1.54"></path>
      <path class="cls-1" d="m153.32,56.44v-12.13h-1.32c-2.71,0-3.32,1.15-3.64,3.27h-.51l.2-4.3,1.24.24h10.66l1.24-.24.2,4.3h-.51c-.32-2.12-.93-3.27-3.56-3.27h-1.39v12.13c0,1.64.78,1.68,2.37,1.93v.54h-7.35v-.54c1.59-.24,2.37-.29,2.37-1.93"></path>
      <path class="cls-1" d="m169.53,56.44v-10.45c0-1.64-.76-1.68-2.03-1.93v-.54h6.66v.54c-1.27.24-2.03.29-2.03,1.93v10.45c0,1.64.76,1.68,2.03,1.93v.54h-6.66v-.54c1.27-.24,2.03-.29,2.03-1.93"></path>
      <path class="cls-1" d="m180.51,51.19c0-4.59,3.34-8.05,8.52-8.05,2.27,0,3.98.59,4.88,1.12.05,1.17.1,2.29.17,3.29h-.88c-.59-2.56-2.34-3.54-4.51-3.54-3.34,0-5.3,2.44-5.3,6.44,0,4.54,2.27,7.86,6.2,7.86,1.81,0,2.34-.71,2.34-2.54v-1.07c0-2.2-.56-2.56-2.61-2.71v-.63h6.56v.63c-1.12.15-1.64.51-1.64,1.73v1.32c0,1.56.24,2.32.37,2.81-.78.68-2.86,1.34-5.3,1.34-5.64,0-8.81-3.46-8.81-8"></path>
      <path class="cls-1" d="m204.01,56.44v-10.45c0-1.64-.76-1.68-2.03-1.93v-.54h11.93l.22,3.46h-.66c-.22-1.73-.63-2.59-2.39-2.59h-2.17c-1.85,0-2.29.17-2.29,1.85v4.47h1.88c2.95,0,3.25-.56,3.39-2.05h.51v4.93h-.51c-.15-1.49-.44-2.05-3.39-2.05h-1.88v4.61c0,1.68.44,1.85,2.29,1.85h1.66c1.93,0,2.83-.68,3.73-2.78h.66l-1,3.66h-11.98v-.54c1.27-.24,2.03-.29,2.03-1.93"></path>
    </g>
    <g>
      <path class="cls-1" d="m231.74,51.24c0-4.51,3.25-8.1,7.86-8.1s7.76,3.44,7.76,7.98-3.25,8.08-7.86,8.08-7.76-3.42-7.76-7.96m8.18,7.08c2.66,0,4.64-2.37,4.64-6.47,0-4.61-2.32-7.83-5.37-7.83-2.66,0-4.64,2.39-4.64,6.49,0,4.61,2.32,7.81,5.37,7.81"></path>
      <path class="cls-1" d="m256.53,45.92v10.52c0,1.64.81,1.68,2.2,1.93v.54h-5.27v-.54c1.27-.24,2.07-.29,2.07-1.93v-10.45c0-1.64-.81-1.68-2.07-1.93v-.54h4.39l8.37,11.3v-8.83c0-1.64-.8-1.68-2.2-1.93v-.54h5.27v.54c-1.27.24-2.07.29-2.07,1.93v12.91h-1.1l-9.59-12.98Z"></path>
      <path class="cls-1" d="m277.42,56.44v-10.45c0-1.64-.76-1.68-2.03-1.93v-.54h11.93l.22,3.46h-.66c-.22-1.73-.63-2.59-2.39-2.59h-2.17c-1.85,0-2.29.17-2.29,1.85v4.47h1.88c2.95,0,3.25-.56,3.39-2.05h.51v4.93h-.51c-.15-1.49-.44-2.05-3.39-2.05h-1.88v4.61c0,1.68.44,1.85,2.29,1.85h1.66c1.93,0,2.83-.68,3.73-2.78h.66l-1,3.66h-11.98v-.54c1.27-.24,2.03-.29,2.03-1.93"></path>
    </g>
  </g>
  <g>
    <polygon class="cls-1" points="45.08 52.53 48.54 54.53 48.54 74.03 45.08 74.03 45.08 52.53"></polygon>
    <polygon class="cls-1" points="56.57 28.4 56.57 47.59 53.11 45.6 53.11 28.4 56.57 28.4"></polygon>
    <polygon class="cls-1" points="56.55 51.53 56.57 51.53 56.57 74.03 53.11 74.03 53.11 53.47 45.09 48.59 45.08 48.59 45.08 28.4 48.54 28.4 48.54 46.64 56.56 51.52 56.55 51.53"></polygon>
    <polygon class="cls-1" points="39.77 52.53 36.31 54.53 36.31 74.03 39.77 74.03 39.77 52.53"></polygon>
    <polygon class="cls-1" points="28.28 28.4 28.28 47.59 31.75 45.6 31.75 28.4 28.28 28.4"></polygon>
    <polygon class="cls-1" points="28.3 51.53 28.28 51.53 28.28 74.03 31.75 74.03 31.75 53.47 39.76 48.59 39.77 48.59 39.77 28.4 36.31 28.4 36.31 46.64 28.29 51.52 28.3 51.53"></polygon>
  </g>
</svg>
