<svg xmlns:xlink="http://www.w3.org/1999/xlink"  xmlns="http://www.w3.org/2000/svg" width="482" height="482" viewBox="0 0 482 482" fill="none"><path d="M62.3757 137.84H419.626C422.936 137.84 425.626 135.15 425.626 131.84V89.9C425.626 86.59 422.936 83.9 419.626 83.9H380.966V47.95C380.966 44.64 378.276 41.95 374.966 41.95H336.306V6C336.306 2.69 333.616 0 330.306 0H151.696C148.386 0 145.696 2.69 145.696 6V41.95H107.036C103.726 41.95 101.036 44.64 101.036 47.95V83.9H62.3757C59.0657 83.9 56.3757 86.59 56.3757 89.9V131.85C56.3757 135.16 59.0657 137.84 62.3757 137.84ZM235.006 95.9V125.85H157.696V95.9H235.006ZM279.666 53.95V83.9H202.356V53.95H279.666ZM324.316 95.9V125.85H247.006V95.9H324.316ZM413.636 125.84H336.326V95.9H413.636V125.84ZM368.976 83.9H291.666V53.95H368.976V83.9ZM324.316 41.95H247.006V12H324.316V41.95ZM157.696 12H235.006V41.95H157.696V12ZM113.036 53.95H190.346V83.9H113.036V53.95ZM68.3757 95.9H145.686V125.85H68.3757V95.9ZM481.536 332.97L413.186 169.44C412.576 167.97 411.396 166.81 409.926 166.2C408.456 165.6 406.806 165.6 405.336 166.21L333.056 196.42C329.996 197.7 328.556 201.21 329.836 204.27L334.516 215.48C312.736 206.28 289.126 197.89 264.116 190.47C262.846 190.09 261.496 190.15 260.266 190.62C256.676 192 253.126 193.34 249.616 194.66C230.506 201.88 212.446 208.7 194.406 218.83C192.716 219.78 191.586 221.48 191.376 223.41C191.216 224.87 191.046 226.29 190.866 227.72L144.236 218.36L152.146 199.41C152.756 197.94 152.766 196.29 152.156 194.82C151.556 193.35 150.386 192.18 148.916 191.56L76.5857 161.36C73.5257 160.08 70.0157 161.53 68.7357 164.59L0.465694 328.15C-0.814306 331.21 0.635694 334.72 3.69569 336L76.0257 366.2C76.7657 366.51 77.5557 366.66 78.3357 366.66C79.1057 366.66 79.8857 366.51 80.6157 366.21C82.0857 365.61 83.2557 364.44 83.8757 362.97L91.7457 344.11L113.526 359.23L100.306 373.29C96.9957 376.82 95.2457 381.43 95.3957 386.28C95.5457 391.13 97.5657 395.63 101.096 398.94L111.366 408.59C113.726 410.81 116.536 412.25 119.476 412.97C118.296 418.91 120.086 425.31 124.816 429.76L135.086 439.41C138.586 442.7 143.056 444.33 147.516 444.33C150.516 444.33 153.516 443.59 156.206 442.12C157.176 444.31 158.576 446.31 160.366 448L170.636 457.65C174.136 460.94 178.606 462.57 183.066 462.57C185.586 462.57 188.096 462.04 190.436 461C191.386 463.36 192.836 465.57 194.806 467.42L205.076 477.07C208.576 480.36 213.046 481.99 217.506 481.99C222.346 481.99 227.166 480.07 230.736 476.28L249.256 456.58L267.776 472.95C271.226 476 275.516 477.49 279.786 477.49C284.816 477.49 289.816 475.42 293.396 471.37L302.726 460.81C304.526 458.78 305.756 456.45 306.486 454.01C308.366 454.64 310.316 454.97 312.276 454.97C317.306 454.97 322.306 452.9 325.886 448.85L335.216 438.29C336.876 436.41 338.076 434.28 338.826 432.04C341.116 433.02 343.546 433.53 345.986 433.53C351.016 433.53 356.016 431.46 359.596 427.41L368.926 416.85C372.136 413.22 373.736 408.56 373.436 403.71C373.346 402.31 373.086 400.95 372.706 399.64C375.566 398.65 378.226 396.95 380.376 394.53L389.706 383.97C396.336 376.47 395.626 364.98 388.126 358.35L383.506 354.27L390.556 349.52L398.196 367.8C398.806 369.27 399.986 370.43 401.456 371.04C402.186 371.34 402.956 371.49 403.736 371.49C404.526 371.49 405.306 371.34 406.046 371.03L478.326 340.82C481.376 339.54 482.816 336.03 481.536 332.97ZM75.1157 352.81L13.8557 327.23L77.5157 174.75L138.776 200.33L75.1157 352.81ZM109.316 390.21C106.846 387.89 106.726 383.99 109.046 381.52L140.206 348.37C142.496 345.93 146.256 345.76 148.766 347.97L159.326 357.31C160.676 358.5 161.316 359.84 161.396 361.63C161.476 363.42 160.966 364.81 159.746 366.12L128.286 399.59C125.966 402.06 122.066 402.18 119.596 399.86L109.316 390.21ZM143.306 430.68L133.036 421.03C131.846 419.91 131.166 418.39 131.106 416.74C131.056 415.09 131.646 413.53 132.766 412.34L137.016 407.82L137.026 407.81L168.476 374.35C168.476 374.35 168.476 374.34 168.486 374.34L176.086 366.26C177.306 364.97 178.926 364.31 180.566 364.31C182.016 364.31 183.466 364.82 184.646 365.86L195.206 375.19C196.536 376.37 197.196 377.74 197.276 379.51C197.356 381.31 196.846 382.7 195.616 384.01L159.586 422.35C159.586 422.35 159.586 422.35 159.576 422.36L152.006 430.41C149.676 432.88 145.776 433 143.306 430.68ZM178.846 448.92L168.576 439.27C167.386 438.15 166.706 436.63 166.656 434.98C166.606 433.33 167.196 431.77 168.316 430.58L198.846 398.1C201.136 395.66 204.896 395.49 207.406 397.7L217.966 407.03C219.316 408.22 219.956 409.56 220.036 411.35C220.116 413.15 219.606 414.54 218.376 415.85L187.546 448.64C185.226 451.12 181.326 451.24 178.846 448.92ZM221.976 468.07C219.656 470.54 215.756 470.66 213.276 468.34L203.006 458.69C200.536 456.37 200.416 452.47 202.736 449.99L227.106 424.07C227.276 423.89 227.426 423.69 227.586 423.5L227.616 423.52C229.906 421.08 233.666 420.91 236.176 423.12L246.736 432.46C248.066 433.64 248.726 435.01 248.806 436.78C248.886 438.58 248.376 439.97 247.146 441.28L221.976 468.07ZM380.706 376.04L371.376 386.6C369.126 389.14 365.236 389.38 362.696 387.14L292.566 325.15C290.086 322.96 286.296 323.19 284.096 325.67C281.896 328.15 282.136 331.94 284.616 334.14L354.746 396.13C355.756 397.03 356.856 397.77 357.996 398.4C358.336 399.08 358.796 399.71 359.406 400.24C360.626 401.32 361.356 402.82 361.466 404.47C361.566 406.12 361.026 407.7 359.946 408.92L350.616 419.48C348.366 422.02 344.476 422.26 341.936 420.02L258.236 346.05C255.756 343.86 251.966 344.09 249.766 346.57C247.576 349.05 247.806 352.84 250.286 355.04L325.696 421.69C328.236 423.94 328.476 427.83 326.226 430.37L316.896 440.93C314.646 443.47 310.756 443.71 308.216 441.47L235.716 377.39C233.236 375.19 229.436 375.43 227.246 377.91C225.056 380.39 225.286 384.18 227.766 386.38L293.196 444.22C295.736 446.47 295.976 450.36 293.736 452.9L284.406 463.46C282.156 466 278.266 466.24 275.726 464L257.366 447.77C259.816 444.44 261.016 440.51 260.816 436.27C260.586 431.25 258.466 426.84 254.706 423.51L244.146 414.17C240.626 411.05 236.256 409.56 231.926 409.61C231.426 405.1 229.386 401.13 225.926 398.07L215.366 388.74C213.326 386.94 211.006 385.69 208.576 384.95C209.126 383.06 209.376 381.07 209.276 379C209.046 373.98 206.936 369.57 203.166 366.24L192.606 356.91C186.686 351.68 178.406 350.97 171.876 354.58C170.846 352.25 169.316 350.14 167.296 348.36L156.736 339.03C149.336 332.49 138.246 333 131.486 340.2L121.856 350.45L96.4957 332.85L139.556 229.72L189.296 239.71C185.236 266.75 179.026 287.23 170.416 301.96C169.146 304.14 167.596 308.75 171.546 315.05C173.776 318.6 177.126 320.89 181.246 321.67L196.196 324.5C205.546 326.27 214.436 324.1 221.926 318.23C234.266 308.55 239.096 295.69 236.596 279.02L266.566 267L380.186 367.43C382.706 369.6 382.946 373.5 380.706 376.04ZM374.206 346.08L271.716 255.49C270.016 253.99 267.616 253.57 265.506 254.42L227.526 269.65C224.786 270.75 223.256 273.67 223.906 276.54C227.196 291.1 224.296 301.03 214.486 308.72C209.736 312.44 204.326 313.76 198.396 312.64L183.446 309.81C182.626 309.66 182.116 309.3 181.676 308.6C181.326 308.04 181.146 307.65 181.056 307.4C191.686 288.94 198.856 262.87 202.946 227.82C219.346 218.92 236.136 212.58 253.846 205.89C256.756 204.79 259.686 203.68 262.646 202.55C290.926 211.02 317.326 220.74 341.206 231.48L385.816 338.23L374.206 346.08ZM406.946 357.64L343.226 205.18L404.436 179.6L468.156 332.06L406.946 357.64Z" fill="black"></path></svg>