<svg xmlns:xlink="http://www.w3.org/1999/xlink"  xmlns="http://www.w3.org/2000/svg" viewBox="0 0 42 38"><path d="M28.7586 31.3881C27.724 31.9585 26.6291 32.4122 25.4941 32.7407C25.4779 32.7454 25.4637 32.7552 25.4537 32.7688C25.4437 32.7824 25.4385 32.799 25.4389 32.8158V37.2317C25.4385 37.3764 25.3808 37.515 25.2785 37.6173C25.1761 37.7195 25.0374 37.7771 24.8927 37.7773H17.1068C16.9621 37.777 16.8234 37.7194 16.7211 37.6171C16.6188 37.5148 16.5612 37.3761 16.5608 37.2314V32.8158C16.5613 32.799 16.5561 32.7824 16.5461 32.7688C16.5361 32.7553 16.5219 32.7454 16.5057 32.7407C15.3707 32.4122 14.2758 31.9585 13.2412 31.3881C13.2264 31.3797 13.2093 31.3765 13.1925 31.3789C13.1757 31.3813 13.1602 31.3892 13.1483 31.4013L10.0254 34.5243C9.92242 34.6261 9.78346 34.6832 9.63866 34.6832C9.49386 34.6832 9.3549 34.6261 9.25194 34.5243L3.74601 29.0188C3.6441 28.9163 3.58689 28.7776 3.58689 28.6331C3.58689 28.4885 3.6441 28.3499 3.74601 28.2474L6.87164 25.1244C6.88331 25.1123 6.89086 25.0968 6.89324 25.0802C6.89562 25.0635 6.89269 25.0465 6.88488 25.0316C6.31336 23.9974 5.8595 22.9024 5.53179 21.7672C5.52738 21.7507 5.51762 21.7361 5.50403 21.7257C5.49044 21.7153 5.47379 21.7097 5.45668 21.7098H1.03855C0.966856 21.7098 0.895857 21.6957 0.829613 21.6683C0.76337 21.6409 0.703179 21.6007 0.652483 21.55C0.601787 21.4993 0.56158 21.4391 0.534159 21.3728C0.506738 21.3066 0.492642 21.2356 0.492676 21.1639V17.2716C0.492994 17.1269 0.550607 16.9883 0.65291 16.886C0.755213 16.7837 0.893874 16.7261 1.03855 16.7257H4.67654C4.69706 16.7257 4.71673 16.7176 4.73123 16.7031C4.74574 16.6886 4.75389 16.6689 4.75389 16.6484V14.0979C4.75731 12.9221 5.22607 11.7955 6.05769 10.9643C6.88931 10.133 8.01617 9.66487 9.19196 9.66203H12.894C13.4984 9.66327 14.0962 9.78802 14.6507 10.0286C15.2052 10.2692 15.7047 10.6205 16.1185 11.0611C16.1318 11.0742 16.1492 11.0822 16.1678 11.0837C16.1864 11.0853 16.2049 11.0803 16.2202 11.0697C17.0238 10.5188 17.9755 10.2245 18.9497 10.2254H23.0496C24.0239 10.2245 24.9756 10.5188 25.7792 11.0697C25.7945 11.0803 25.813 11.0852 25.8316 11.0836C25.8501 11.0821 25.8675 11.0741 25.8808 11.0611C26.2947 10.6205 26.7942 10.2691 27.3487 10.0286C27.9032 9.78797 28.501 9.66324 29.1055 9.66203H32.8076C33.9833 9.66491 35.1102 10.1331 35.9418 10.9643C36.7734 11.7955 37.2421 12.9221 37.2456 14.0979V16.6484C37.2456 16.6689 37.2537 16.6886 37.2682 16.7031C37.2827 16.7176 37.3024 16.7257 37.3229 16.7257H40.9609C41.1056 16.7261 41.2442 16.7837 41.3465 16.886C41.4488 16.9883 41.5065 17.1269 41.5068 17.2716V21.1638C41.5068 21.2355 41.4927 21.3065 41.4653 21.3728C41.4379 21.439 41.3977 21.4992 41.347 21.5499C41.2963 21.6006 41.2361 21.6408 41.1698 21.6682C41.1036 21.6956 41.0326 21.7097 40.9609 21.7097H36.5429C36.5257 21.7096 36.5091 21.7152 36.4955 21.7256C36.4818 21.7359 36.4721 21.7506 36.4677 21.7671C36.1402 22.9024 35.6865 23.9974 35.1151 25.0316C35.1073 25.0465 35.1043 25.0635 35.1067 25.0802C35.1091 25.0968 35.1166 25.1123 35.1283 25.1244L38.2513 28.2474C38.3022 28.2979 38.3427 28.3579 38.3703 28.4241C38.3979 28.4903 38.4121 28.5614 38.4121 28.6331C38.4121 28.7048 38.3979 28.7758 38.3703 28.842C38.3427 28.9082 38.3022 28.9683 38.2513 29.0188L32.7479 34.5243C32.645 34.6261 32.506 34.6832 32.3612 34.6832C32.2164 34.6832 32.0775 34.6261 31.9745 34.5243L28.8515 31.4013C28.8397 31.3892 28.8242 31.3813 28.8074 31.3789C28.7906 31.3765 28.7734 31.3797 28.7586 31.3881ZM5.92521 16.7257H14.0189C14.0393 16.7255 14.0589 16.7173 14.0733 16.7028C14.0878 16.6884 14.096 16.6688 14.0962 16.6484V15.0792C14.0955 13.9031 14.5247 12.7672 15.3031 11.8855C15.3156 11.8705 15.3222 11.8515 15.3218 11.832C15.3214 11.8125 15.3139 11.7938 15.3008 11.7794C14.99 11.4541 14.6165 11.1953 14.2027 11.0187C13.789 10.842 13.3437 10.7512 12.8939 10.7516H9.19196C8.30544 10.7548 7.45613 11.1083 6.82926 11.7352C6.2024 12.362 5.84885 13.2114 5.84572 14.0979V16.6484C5.84611 16.6692 5.85468 16.689 5.86959 16.7035C5.88449 16.7179 5.90443 16.726 5.92521 16.7257ZM26.6963 11.8855C27.4746 12.7672 27.9038 13.9031 27.903 15.0792V16.6484C27.9033 16.6688 27.9115 16.6884 27.926 16.7028C27.9404 16.7172 27.96 16.7255 27.9804 16.7257H36.074C36.0948 16.726 36.1148 16.7179 36.1297 16.7035C36.1446 16.689 36.1532 16.6692 36.1536 16.6484V14.0979C36.1505 13.2114 35.7969 12.3621 35.1701 11.7352C34.5433 11.1084 33.6941 10.7548 32.8076 10.7516H29.1056C28.6557 10.7512 28.2105 10.842 27.7968 11.0187C27.383 11.1953 27.0095 11.4541 26.6987 11.7794C26.6851 11.7935 26.6772 11.8123 26.6768 11.832C26.6764 11.8517 26.6833 11.8708 26.6963 11.8855ZM30.9554 0.659992C31.71 0.659788 32.4478 0.883373 33.0754 1.30247C33.703 1.72157 34.1922 2.31737 34.4812 3.01451C34.7702 3.71165 34.8459 4.47883 34.6989 5.21903C34.5519 5.95923 34.1886 6.63921 33.6552 7.17297C33.1217 7.70674 32.4419 8.07032 31.7018 8.21774C30.9616 8.36515 30.1944 8.28978 29.4971 8.00116C28.7998 7.71254 28.2038 7.22363 27.7844 6.59626C27.3649 5.96889 27.141 5.23123 27.1408 4.47656C27.1406 3.46458 27.5424 2.49396 28.2578 1.77818C28.9732 1.0624 29.9434 0.660402 30.9554 0.659992ZM32.8826 2.54967C32.5016 2.16864 32.0162 1.90914 31.4878 1.80399C30.9593 1.69884 30.4115 1.75276 29.9137 1.95894C29.4159 2.16512 28.9904 2.51429 28.6911 2.96229C28.3917 3.4103 28.2319 3.93701 28.2319 4.47583C28.2319 5.01465 28.3917 5.54137 28.6911 5.98937C28.9904 6.43738 29.4159 6.78655 29.9137 6.99272C30.4115 7.1989 30.9593 7.25282 31.4878 7.14767C32.0162 7.04252 32.5016 6.78302 32.8826 6.40199C33.3932 5.89099 33.68 5.19819 33.68 4.47583C33.68 3.75348 33.3932 3.06067 32.8826 2.54967ZM11.044 0.659992C11.7986 0.660264 12.5361 0.884254 13.1634 1.30364C13.7906 1.72303 14.2795 2.31899 14.5681 3.01618C14.8567 3.71336 14.9321 4.48046 14.7848 5.2205C14.6375 5.96055 14.2741 6.6403 13.7405 7.17382C13.2069 7.70735 12.5271 8.07069 11.7871 8.21791C11.047 8.36513 10.2799 8.28963 9.58278 8.00094C8.88563 7.71224 8.28973 7.22333 7.87041 6.59601C7.45109 5.96869 7.22718 5.23112 7.227 4.47656C7.22683 3.97526 7.32544 3.47884 7.5172 3.01567C7.70897 2.5525 7.99012 2.13166 8.3446 1.77719C8.69907 1.42272 9.11992 1.14158 9.5831 0.949824C10.0463 0.758071 10.5427 0.659812 11.044 0.659992ZM12.969 2.54967C12.588 2.16864 12.1026 1.90914 11.5742 1.80399C11.0457 1.69884 10.4979 1.75276 10.0001 1.95894C9.5023 2.16512 9.07681 2.51429 8.77745 2.96229C8.47809 3.4103 8.31831 3.93701 8.31831 4.47583C8.31831 5.01465 8.47809 5.54137 8.77745 5.98937C9.07681 6.43738 9.5023 6.78655 10.0001 6.99272C10.4979 7.1989 11.0457 7.25282 11.5742 7.14767C12.1026 7.04252 12.588 6.78302 12.969 6.40199C13.4796 5.89099 13.7664 5.19819 13.7664 4.47583C13.7664 3.75348 13.4796 3.06067 12.969 2.54967ZM15.2654 16.7257H26.734C26.7545 16.7255 26.774 16.7172 26.7884 16.7028C26.8029 16.6884 26.8111 16.6688 26.8114 16.6484V15.0792C26.8081 14.0825 26.4107 13.1276 25.706 12.4228C25.0013 11.718 24.0464 11.3206 23.0497 11.3172H18.9498C17.9531 11.3202 16.998 11.7175 16.2932 12.4223C15.5884 13.1271 15.1911 14.0822 15.1881 15.0789V16.6481C15.1883 16.6686 15.1966 16.6881 15.211 16.7025C15.2255 16.717 15.245 16.7255 15.2654 16.7257ZM20.9987 0.222656C21.8555 0.222656 22.693 0.476737 23.4054 0.952767C24.1178 1.4288 24.6731 2.10539 25.0009 2.89699C25.3288 3.68859 25.4145 4.55963 25.2473 5.39997C25.0801 6.2403 24.6675 7.01217 24.0616 7.61798C23.4557 8.22378 22.6837 8.63631 21.8434 8.80338C21.003 8.97045 20.132 8.88456 19.3404 8.55659C18.5489 8.22861 17.8724 7.67326 17.3964 6.96079C16.9205 6.24832 16.6666 5.41071 16.6667 4.55391C16.6674 3.40528 17.124 2.3039 17.9363 1.49176C18.7486 0.679623 19.85 0.223157 20.9987 0.222656ZM23.2906 2.26487C22.8375 1.81176 22.2602 1.50319 21.6318 1.37817C21.0033 1.25315 20.3519 1.31731 19.7598 1.56252C19.1678 1.80773 18.6618 2.22299 18.3058 2.75578C17.9498 3.28857 17.7598 3.91497 17.7598 4.55575C17.7598 5.19654 17.9498 5.82293 18.3058 6.35573C18.6618 6.88852 19.1678 7.30378 19.7598 7.54899C20.3519 7.7942 21.0033 7.85836 21.6318 7.73334C22.2602 7.60832 22.8375 7.29974 23.2906 6.84663C23.5917 6.54595 23.8306 6.18885 23.9936 5.79576C24.1566 5.40266 24.2405 4.9813 24.2405 4.55575C24.2405 4.13021 24.1566 3.70884 23.9936 3.31575C23.8306 2.92266 23.5917 2.56556 23.2906 2.26487ZM1.58443 17.8949V20.5405C1.58442 20.5509 1.58649 20.5611 1.59052 20.5706C1.59455 20.5802 1.60044 20.5888 1.60786 20.596C1.61528 20.6032 1.62408 20.6089 1.63372 20.6126C1.64336 20.6164 1.65366 20.6182 1.664 20.6179H5.92968C6.05879 20.6182 6.18365 20.664 6.28229 20.7474C6.38092 20.8307 6.44702 20.9461 6.46894 21.0733V21.0819C6.81858 22.4097 7.34804 23.6835 8.04263 24.868C8.17961 25.1023 8.17523 25.363 7.97852 25.5597L4.95936 28.5789C4.95203 28.5859 4.94619 28.5943 4.94221 28.6036C4.93822 28.6129 4.93616 28.623 4.93616 28.6331C4.93616 28.6432 4.93822 28.6532 4.94221 28.6625C4.94619 28.6718 4.95203 28.6802 4.95936 28.6872L9.5828 33.3107C9.59 33.318 9.5986 33.3239 9.60809 33.3278C9.61758 33.3318 9.62777 33.3339 9.63806 33.3339C9.64835 33.3339 9.65854 33.3318 9.66803 33.3278C9.67752 33.3239 9.68611 33.318 9.69332 33.3107L12.7102 30.2937C12.9069 30.097 13.1699 30.0904 13.4043 30.2275C14.5881 30.9233 15.862 31.4528 17.1902 31.8011C17.1925 31.8011 17.1947 31.8033 17.1969 31.8033C17.3242 31.8244 17.4398 31.8899 17.5232 31.9883C17.6067 32.0867 17.6524 32.2114 17.6524 32.3404V36.6086C17.6527 36.629 17.6609 36.6486 17.6753 36.663C17.6898 36.6775 17.7093 36.6857 17.7298 36.6859H24.2696C24.29 36.6857 24.3096 36.6775 24.324 36.663C24.3385 36.6486 24.3467 36.629 24.3469 36.6086V32.3407H24.3491C24.3493 32.2201 24.3896 32.103 24.4636 32.0078C24.5377 31.9126 24.6412 31.8446 24.758 31.8147C26.1044 31.4663 27.3957 30.9322 28.5948 30.2277C28.8291 30.0907 29.0899 30.0973 29.2866 30.294L32.3058 33.3109C32.313 33.3183 32.3216 33.3241 32.3311 33.3281C32.3405 33.332 32.3507 33.3341 32.361 33.3341C32.3713 33.3341 32.3815 33.332 32.3909 33.3281C32.4004 33.3241 32.409 33.3183 32.4162 33.3109L37.0397 28.6875C37.0535 28.6729 37.0613 28.6535 37.0613 28.6333C37.0613 28.6132 37.0535 28.5938 37.0397 28.5792L34.021 25.5598C33.8243 25.3631 33.8198 25.1023 33.9548 24.8681C34.6517 23.6837 35.182 22.4089 35.5306 21.0797V21.0731C35.5525 20.9458 35.6186 20.8304 35.7173 20.7471C35.8159 20.6638 35.9407 20.6179 36.0699 20.6176H40.3357C40.3461 20.6179 40.3563 20.6161 40.366 20.6124C40.3756 20.6086 40.3844 20.603 40.3918 20.5958C40.3993 20.5885 40.4052 20.5799 40.4092 20.5704C40.4132 20.5608 40.4153 20.5506 40.4153 20.5403V17.8949C40.4149 17.8741 40.4064 17.8543 40.3914 17.8398C40.3765 17.8254 40.3565 17.8174 40.3357 17.8176H32.1957C32.1761 17.818 32.1573 17.8256 32.143 17.8391C32.1287 17.8526 32.1199 17.8709 32.1184 17.8905C31.9601 20.7322 30.7197 23.4054 28.652 25.3612C26.5843 27.317 23.8462 28.4068 21.0001 28.4068C18.1539 28.4068 15.4158 27.317 13.3481 25.3612C11.2804 23.4054 10.04 20.7322 9.88178 17.8905C9.88026 17.8709 9.8715 17.8525 9.8572 17.8391C9.84289 17.8256 9.82408 17.8179 9.80443 17.8176H1.66383C1.64305 17.8174 1.62303 17.8254 1.60812 17.8399C1.59322 17.8544 1.58481 17.8741 1.58443 17.8949ZM30.9467 17.8176H11.0528C11.0423 17.8176 11.0319 17.8198 11.0223 17.824C11.0126 17.8282 11.0039 17.8343 10.9967 17.8419C10.9895 17.8496 10.9839 17.8586 10.9802 17.8684C10.9766 17.8783 10.975 17.8888 10.9755 17.8993C11.1347 20.4498 12.2601 22.8437 14.1225 24.5935C15.9849 26.3433 18.4443 27.3174 20.9998 27.3174C23.5552 27.3174 26.0146 26.3433 27.877 24.5935C29.7394 22.8437 30.8648 20.4498 31.024 17.8993C31.0246 17.8888 31.0229 17.8783 31.0193 17.8684C31.0157 17.8586 31.01 17.8496 31.0028 17.8419C30.9956 17.8343 30.9869 17.8282 30.9772 17.824C30.9676 17.8198 30.9572 17.8176 30.9467 17.8176Z"></path></svg>