<svg xmlns:xlink="http://www.w3.org/1999/xlink"  xmlns="http://www.w3.org/2000/svg" viewBox="0 0 40 40"><path fill-rule="evenodd" clip-rule="evenodd" d="M27.9059 19.3622L30.0736 23.1145H25.7383L27.9059 19.3622ZM24.7116 24.3005H31.1001C31.5435 24.3005 31.8415 23.8062 31.6084 23.4134L28.4192 17.8821C28.1977 17.4949 27.6195 17.4859 27.3927 17.8821L24.1984 23.4134C23.9679 23.8107 24.2684 24.3005 24.7116 24.3005ZM26.396 10.243C26.5938 10.0439 26.8291 9.88597 27.0882 9.77817C27.3473 9.67037 27.6252 9.61487 27.9059 9.61487C28.1865 9.61487 28.4644 9.67037 28.7235 9.77817C28.9827 9.88597 29.2179 10.0439 29.4158 10.243C30.248 11.0752 30.248 12.4257 29.4158 13.2578C28.5836 14.09 27.2282 14.09 26.396 13.2578C25.5638 12.4256 25.5638 11.0751 26.396 10.243ZM27.9059 15.0666C28.753 15.0666 29.6052 14.7427 30.2529 14.0949C31.5435 12.8043 31.5435 10.6965 30.2529 9.40577C28.9573 8.11015 26.8544 8.11015 25.5588 9.40577C24.2682 10.6964 24.2682 12.8043 25.5588 14.0949C26.2066 14.7428 27.0538 15.0666 27.9059 15.0666ZM20.755 13.8458H16.5692V9.65499H20.755V13.8458ZM21.348 8.47394H15.9762C15.8982 8.47371 15.821 8.48889 15.749 8.5186C15.6769 8.54832 15.6115 8.59199 15.5564 8.64709C15.5013 8.7022 15.4576 8.76766 15.4279 8.8397C15.3982 8.91175 15.383 8.98895 15.3832 9.06689V14.4337C15.383 14.5117 15.3982 14.5889 15.4279 14.6609C15.4576 14.733 15.5013 14.7984 15.5564 14.8535C15.6115 14.9086 15.6769 14.9523 15.749 14.982C15.821 15.0117 15.8982 15.0269 15.9762 15.0267H21.348C21.672 15.0267 21.941 14.7626 21.941 14.4337V9.06689C21.941 8.73803 21.6719 8.47394 21.348 8.47394ZM0.926918 9.95393C0.926918 10.2779 1.19101 10.5419 1.51995 10.5419C1.84388 10.5419 2.10797 10.2779 2.10797 9.95393V1.91108H29.1218C29.1997 1.91131 29.2769 1.89613 29.349 1.86642C29.421 1.8367 29.4865 1.79304 29.5416 1.73793C29.5967 1.68283 29.6404 1.61737 29.6701 1.54532C29.6998 1.47328 29.715 1.39607 29.7148 1.31813C29.715 1.24019 29.6999 1.16296 29.6702 1.0909C29.6404 1.01884 29.5968 0.953368 29.5416 0.898252C29.4865 0.843135 29.4211 0.799462 29.349 0.769745C29.2769 0.740029 29.1997 0.724857 29.1218 0.725101H1.51995C1.442 0.724857 1.36478 0.740029 1.29272 0.769745C1.22066 0.799462 1.15519 0.843135 1.10007 0.898252C1.04495 0.953368 1.00128 1.01884 0.971563 1.0909C0.941847 1.16296 0.926674 1.24019 0.926918 1.31813V9.95393ZM39.5166 6.02226C39.5166 5.69332 39.2475 5.42923 38.9236 5.42923C38.8457 5.42898 38.7685 5.44416 38.6964 5.47387C38.6244 5.50359 38.5589 5.54726 38.5038 5.60238C38.4487 5.6575 38.405 5.72297 38.3753 5.79503C38.3455 5.86709 38.3304 5.94431 38.3306 6.02226V33.031H25.8927C25.5688 33.031 25.3047 33.3002 25.3047 33.6241C25.3047 33.9529 25.5688 34.2171 25.8927 34.2171H38.9236C39.2476 34.2171 39.5166 33.953 39.5166 33.6241V6.02226ZM20.7351 25.5014C21.8065 25.5014 22.6736 26.4283 22.6736 27.5645V29.1491H32.5303C33.7512 29.1491 34.7478 28.1525 34.7478 26.9316V7.74143C34.7478 6.52052 33.7512 5.52392 32.5303 5.52392H7.48987C6.26896 5.52392 5.27236 6.52052 5.27236 7.74143V12.5901H10.9083C11.9548 12.5901 12.8069 13.4422 12.8069 14.4887V15.4554C13.8035 15.5402 14.5859 16.4321 14.5859 17.5135V23.0697C15.6844 22.5789 16.8969 23.2318 17.2071 24.4052C18.2857 23.8553 19.579 24.4826 19.903 25.7008C20.1607 25.5695 20.4459 25.5011 20.7351 25.5014ZM21.4476 30.7786C21.2034 36.29 19.6636 38.1387 15.3382 38.0889C10.8832 38.0441 10.5993 35.6124 10.1707 31.9347C10.1258 31.5511 10.081 31.1524 10.0312 30.7537C10.0312 30.7437 10.0262 30.7387 10.0262 30.7288C9.72718 28.9698 8.86514 27.7438 7.39509 26.9814C5.52861 26.0116 5.70708 24.7888 6.93661 24.7888C7.25051 24.7888 7.61932 24.8735 8.01796 25.0678L10.9979 26.7222C11.3983 26.9416 11.8799 26.6444 11.8799 26.204L11.8899 17.5134C11.8899 17.035 12.2387 16.6314 12.6473 16.6314C13.0609 16.6314 13.4047 17.035 13.4047 17.5134V24.9732C13.4047 25.2971 13.6688 25.5612 13.9976 25.5612C14.3216 25.5612 14.5857 25.2971 14.5857 24.9732C14.5857 24.4948 14.9345 24.0911 15.3431 24.0911C15.7567 24.0911 16.1005 24.4948 16.1005 24.9732V26.2688C16.1003 26.3467 16.1154 26.4239 16.1452 26.496C16.1749 26.568 16.2186 26.6335 16.2737 26.6886C16.3288 26.7437 16.3943 26.7874 16.4663 26.8171C16.5384 26.8468 16.6156 26.862 16.6935 26.8617C17.0175 26.8617 17.2815 26.5976 17.2815 26.2688C17.2815 25.7904 17.6304 25.3868 18.039 25.3868C18.4526 25.3868 18.7964 25.7904 18.7964 26.2688V27.5644C18.7961 27.6423 18.8113 27.7195 18.841 27.7916C18.8708 27.8636 18.9144 27.9291 18.9695 27.9842C19.0246 28.0393 19.0901 28.083 19.1621 28.1127C19.2342 28.1424 19.3114 28.1576 19.3893 28.1573C19.7132 28.1573 19.9773 27.8933 19.9773 27.5644C19.9773 27.086 20.3262 26.6824 20.7348 26.6824C21.1433 26.6824 21.4922 27.086 21.4922 27.5644C21.4925 28.5383 21.5079 29.423 21.4476 30.7786ZM2.382 33.9629C1.98837 33.9629 1.66445 33.639 1.66445 33.2403V14.4887C1.66445 14.0949 1.98837 13.7711 2.382 13.7711H10.9082C11.3019 13.7711 11.6258 14.095 11.6258 14.4887V15.7594C11.0776 16.1281 10.7089 16.7759 10.7089 17.5135L10.694 25.2025L8.58107 24.0264C8.57113 24.0214 8.56611 24.0214 8.55617 24.0165C6.88179 23.1893 5.48153 23.7324 5.00818 24.6644C4.5248 25.6162 4.90848 27.0213 6.84694 28.028C7.98311 28.6209 8.62094 29.5379 8.86012 30.9183C8.90993 31.307 8.95481 31.6956 8.9996 32.0694C9.06938 32.7122 9.14409 33.35 9.2438 33.963L2.382 33.9629ZM32.5302 30.3351C34.4039 30.3351 35.9287 28.8053 35.9287 26.9316V7.74143C35.9287 5.86773 34.4039 4.34287 32.5302 4.34287H7.48978C5.61609 4.34287 4.09122 5.86773 4.09122 7.74143V12.5901H2.382C1.3355 12.5901 0.483398 13.4422 0.483398 14.4887V33.2403C0.483398 34.2917 1.3355 35.1439 2.382 35.1439H9.488C10.1145 37.567 11.5138 39.275 15.4728 39.275C21.3509 39.275 22.4911 35.5511 22.6486 30.3352L32.5302 30.3351Z"></path></svg>