<svg xmlns:xlink="http://www.w3.org/1999/xlink" xmlns="http://www.w3.org/2000/svg" width="100" height="100" viewBox="0 0 24 24" fill="none"><path d="M24 16.4985C24 16.7745 23.776 16.9985 23.5 16.9985C23.443 16.9985 23.378 16.9895 23.318 16.9855L22.868 20.1355C22.553 22.3385 20.638 23.9985 18.413 23.9985H17.654C17.378 23.9985 17.154 23.7745 17.154 23.4985C17.154 23.2225 17.378 22.9985 17.654 22.9985H18.413C20.143 22.9985 21.633 21.7065 21.878 19.9935L22.336 16.7895C20.191 16.1245 17.135 13.8205 16.118 9.9985H12.382C11.802 9.9985 11.251 10.2495 10.871 10.6885C10.426 11.1885 10.3 11.8745 10.436 12.5195C10.475 12.7925 10.285 13.0455 10.011 13.0845C9.735 13.1225 9.485 12.9335 9.446 12.6595C9.261 11.7285 9.484 10.7515 10.116 10.0335C10.686 9.3755 11.512 8.9985 12.382 8.9985H21C21.87 8.9985 22.695 9.3755 23.266 10.0325C23.836 10.6905 24.093 11.5615 23.97 12.4225L23.806 13.5685C23.768 13.8435 23.507 14.0325 23.24 13.9925C22.968 13.9535 22.777 13.7005 22.816 13.4265L22.98 12.2805C23.062 11.7065 22.891 11.1255 22.51 10.6875C22.13 10.2495 21.58 9.9985 21 9.9985H17.154C18.344 13.9565 22.064 15.9985 23.5 15.9985C23.776 15.9985 24 16.2225 24 16.4985ZM7 21.4985V22.4985C7 23.3255 6.327 23.9985 5.5 23.9985H1.5C0.673 23.9985 0 23.3255 0 22.4985V21.4985C0 20.6715 0.673 19.9985 1.5 19.9985H5.5C6.327 19.9985 7 20.6715 7 21.4985ZM6 21.4985C6 21.2225 5.776 20.9985 5.5 20.9985H1.5C1.224 20.9985 1 21.2225 1 21.4985V22.4985C1 22.7745 1.224 22.9985 1.5 22.9985H5.5C5.776 22.9985 6 22.7745 6 22.4985V21.4985ZM15 21.4985V22.4985C15 23.3255 14.327 23.9985 13.5 23.9985H9.5C8.673 23.9985 8 23.3255 8 22.4985V21.4985C8 20.6715 8.673 19.9985 9.5 19.9985H13.5C14.327 19.9985 15 20.6715 15 21.4985ZM14 21.4985C14 21.2225 13.775 20.9985 13.5 20.9985H9.5C9.224 20.9985 9 21.2225 9 21.4985V22.4985C9 22.7745 9.224 22.9985 9.5 22.9985H13.5C13.775 22.9985 14 22.7745 14 22.4985V21.4985ZM5.5 14.9985H9.5C10.327 14.9985 11 15.6715 11 16.4985V17.4985C11 18.3255 10.327 18.9985 9.5 18.9985H5.5C4.673 18.9985 4 18.3255 4 17.4985V16.4985C4 15.6715 4.673 14.9985 5.5 14.9985ZM5 17.4985C5 17.7745 5.224 17.9985 5.5 17.9985H9.5C9.776 17.9985 10 17.7745 10 17.4985V16.4985C10 16.2225 9.776 15.9985 9.5 15.9985H5.5C5.224 15.9985 5 16.2225 5 16.4985V17.4985ZM1.658 17.9985H1.692C1.967 17.9795 2.176 17.7425 2.158 17.4665C2.054 15.8865 2 14.2155 2 12.4995C2 8.5355 2.285 5.5765 2.523 3.7925C2.711 2.3895 3.828 1.3295 5.242 1.2155C8.777 0.9295 12.222 0.9295 15.757 1.2155C17.17 1.3295 18.289 2.3945 18.478 3.8035C18.592 4.6595 18.69 5.5805 18.769 6.5395C18.791 6.8155 19.039 7.0185 19.308 6.9975C19.583 6.9745 19.787 6.7335 19.765 6.4585C19.685 5.4815 19.585 4.5435 19.469 3.6705C19.218 1.7905 17.725 0.3705 15.837 0.2175C12.25 -0.0725 8.75 -0.0725 5.162 0.2175C3.275 0.3705 1.782 1.7855 1.532 3.6595C1.289 5.4735 1 8.4795 1 12.4985C1 14.2365 1.054 15.9295 1.16 17.5315C1.178 17.7955 1.397 17.9985 1.659 17.9985H1.658Z" fill="#FED403"></path></svg>