<svg xmlns:xlink="http://www.w3.org/1999/xlink"  xmlns="http://www.w3.org/2000/svg" width="512" height="512" viewBox="0 0 512 512" fill="none"><path d="M511.996 50.8416C512.027 43.8883 509.26 37.2146 504.315 32.3244L479.672 7.68033C474.805 2.75977 468.17 -0.00588751 461.249 9.41072e-06H461.164C454.284 0.0042215 447.696 2.77156 442.876 7.68033L331.091 119.466H110.933V25.6002C110.933 11.4611 99.4709 9.41072e-06 85.3326 9.41072e-06H68.2661C30.5814 0.0421303 0.0421209 30.5814 0 68.2661V445.872C2.13553 483.269 33.2847 512.385 70.7411 511.996H486.396C500.535 511.996 511.996 500.535 511.996 486.396V145.066C511.996 130.928 500.535 119.466 486.396 119.466H453.97L504.316 69.1195C509.215 64.2975 511.981 57.7157 511.996 50.8416ZM305.321 213.332C303.514 213.578 301.699 212.943 300.44 211.625C299.169 210.363 298.542 208.593 298.733 206.813L301.967 177.8C302.103 177.193 302.274 176.594 302.479 176.008L336.092 209.62C335.537 209.74 335.033 210.013 334.453 210.081L305.321 213.332ZM350.026 199.397L312.684 162.046L405.697 69.0344L443.021 106.35L350.026 199.397ZM417.729 56.9592L430.384 44.3128L467.691 81.6285L455.045 94.2833L417.729 56.9592ZM17.0665 68.2661C17.0952 40.0013 40.0013 17.0943 68.2661 17.0665H85.3326C90.0451 17.0665 93.8663 20.8869 93.8663 25.5994V366.93C93.8663 371.642 90.0459 375.463 85.3326 375.463H68.2661C48.6622 375.457 30.006 383.895 17.0665 398.622V68.2661ZM486.396 136.532C491.109 136.532 494.93 140.353 494.93 145.066V486.396C494.93 491.109 491.11 494.93 486.396 494.93H70.7411C42.5707 495.404 18.9712 473.717 17.0665 445.607V443.73C17.0952 415.465 40.0013 392.559 68.2661 392.53H85.3326C99.4709 392.53 110.932 381.069 110.932 366.931V136.532H314.024L294.645 155.911C289.235 161.242 285.831 168.277 285.011 175.828L281.777 204.9C281.51 207.736 281.78 210.595 282.57 213.331H136.532C131.82 213.331 127.999 217.152 127.999 221.865C127.999 226.577 131.819 230.398 136.532 230.398H162.132V460.796C162.132 465.509 165.953 469.33 170.666 469.33C175.379 469.33 179.2 465.509 179.2 460.796V341.331H273.065V409.597H213.332C208.62 409.597 204.799 413.417 204.799 418.129C204.799 422.842 208.62 426.663 213.332 426.663H383.997C393.423 426.663 401.064 419.022 401.064 409.597V281.598C401.064 276.886 397.243 273.064 392.531 273.064C387.818 273.064 383.997 276.885 383.997 281.598V324.264H179.199V230.399H304.706C305.539 230.4 306.371 230.355 307.198 230.262L336.356 226.943C343.757 226.103 350.664 222.814 355.983 217.599L436.947 136.533L486.396 136.532ZM383.997 341.331V409.597H290.131V341.331H383.997ZM492.284 57.019L479.757 69.5542L442.45 32.2469L454.985 19.7117C456.625 18.0286 458.873 17.075 461.223 17.0665C463.616 17.0724 465.905 18.0378 467.58 19.7463L492.259 44.3735C493.975 46.0634 494.938 48.3733 494.93 50.7817C494.922 53.1321 493.969 55.3805 492.284 57.019Z" fill="black"></path></svg>