<svg xmlns:xlink="http://www.w3.org/1999/xlink"  xmlns="http://www.w3.org/2000/svg" viewBox="0 0 40 40"><path d="M32.1852 24.9574C28.1952 24.9574 24.9607 28.1919 24.9607 32.1819C24.9607 36.1719 28.1952 39.4063 32.1852 39.4063C36.1752 39.4063 39.4096 36.1719 39.4096 32.1819C39.4048 28.1938 36.1733 24.9623 32.1852 24.9574ZM32.1852 38.0928C28.9206 38.0928 26.2743 35.4465 26.2743 32.1819C26.2743 28.9173 28.9206 26.271 32.1852 26.271C35.4498 26.271 38.0961 28.9173 38.0961 32.1819C38.0926 35.4449 35.4482 38.0893 32.1852 38.0928ZM13.7957 24.9574H7.88475V18.0049L9.82238 19.9422C10.0798 20.1914 10.4897 20.1876 10.743 19.9342C10.8648 19.8125 10.9339 19.6478 10.9354 19.4757C10.9369 19.3035 10.8707 19.1376 10.7511 19.0138L7.69232 15.955C7.56912 15.832 7.40211 15.7629 7.22798 15.7629C7.05386 15.7629 6.88685 15.832 6.76365 15.955L3.70524 19.0137C3.58564 19.1376 3.51945 19.3034 3.52094 19.4755C3.52243 19.6477 3.59147 19.8123 3.71321 19.934C3.83494 20.0559 3.99968 20.125 4.17191 20.1265C4.34414 20.128 4.51007 20.0618 4.63391 19.9421L6.57122 18.0049V24.9573H0.660299C0.486113 24.9573 0.319061 25.0265 0.195893 25.1497C0.0727252 25.2729 0.00353013 25.4399 0.00353013 25.6141V38.7495C0.00353013 38.9237 0.0727252 39.0907 0.195893 39.2139C0.319061 39.3371 0.486113 39.4062 0.660299 39.4062H13.7957C13.9699 39.4062 14.1369 39.3371 14.2601 39.2139C14.3832 39.0907 14.4524 38.9237 14.4524 38.7495V25.6141C14.4524 25.4399 14.3832 25.2729 14.2601 25.1497C14.1369 25.0265 13.9699 24.9574 13.7957 24.9574ZM13.1389 38.0928H1.31707V26.271H13.1389V38.0928ZM19.7396 3.7016C19.6585 3.61782 19.5567 3.55711 19.4444 3.5257C19.3321 3.49428 19.2135 3.49329 19.1008 3.52283C18.988 3.55237 18.8851 3.61137 18.8027 3.69378C18.7202 3.77619 18.6612 3.87905 18.6316 3.99181C18.6021 4.10457 18.6032 4.22317 18.6347 4.33539C18.6662 4.44762 18.727 4.54943 18.8109 4.63035L20.7481 6.5679H14.4191C14.0679 2.72194 10.7539 -0.168084 6.89582 0.00760134C3.03772 0.183287 0 3.36262 0 7.22467C0 11.0867 3.03756 14.266 6.89574 14.4417C10.7539 14.6174 14.0679 11.7275 14.419 7.88144H20.7481L18.8109 9.81907C18.727 9.89998 18.6662 10.0018 18.6347 10.114C18.6032 10.2262 18.6021 10.3448 18.6316 10.4575C18.6612 10.5703 18.7203 10.6732 18.8027 10.7556C18.8852 10.8381 18.988 10.8971 19.1008 10.9267C19.2136 10.9562 19.3322 10.9551 19.4445 10.9236C19.5567 10.8921 19.6586 10.8313 19.7396 10.7474L22.7981 7.689C22.8591 7.62804 22.9075 7.55565 22.9405 7.47598C22.9735 7.3963 22.9905 7.31091 22.9905 7.22467C22.9905 7.13843 22.9735 7.05303 22.9405 6.97336C22.9075 6.89369 22.8591 6.8213 22.7981 6.76033L19.7396 3.7016ZM7.22798 13.1356C3.96335 13.1356 1.31707 10.4893 1.31707 7.22467C1.31707 3.96012 3.96335 1.31375 7.22798 1.31375C10.4926 1.31375 13.1389 3.96012 13.1389 7.22467C13.1354 10.4877 10.491 13.1321 7.22798 13.1356ZM39.7591 6.71641L32.6002 0.87117C32.4829 0.775205 32.3361 0.722773 32.1846 0.722773C32.0331 0.722773 31.8862 0.775205 31.769 0.87117L24.6102 6.71641C24.5348 6.77797 24.4741 6.8555 24.4324 6.94341C24.3907 7.03131 24.3691 7.12738 24.3691 7.22467C24.3691 7.32197 24.3907 7.41806 24.4324 7.50597C24.4741 7.59389 24.5348 7.67144 24.6102 7.73301L31.5284 13.3812V21.4017L29.5911 19.464C29.4674 19.3439 29.3013 19.2772 29.1287 19.2785C28.9562 19.2797 28.7911 19.3488 28.6691 19.4708C28.5472 19.5928 28.4781 19.7579 28.4768 19.9304C28.4756 20.103 28.5422 20.269 28.6624 20.3928L31.7209 23.4515C31.8441 23.5745 32.0111 23.6436 32.1852 23.6436C32.3593 23.6436 32.5263 23.5745 32.6495 23.4515L35.7083 20.3928C35.8285 20.269 35.8951 20.103 35.8939 19.9304C35.8926 19.7579 35.8236 19.5928 35.7016 19.4708C35.5796 19.3488 35.4145 19.2797 35.242 19.2785C35.0695 19.2772 34.9034 19.3439 34.7796 19.464L32.842 21.4017V13.3812L39.7592 7.73301C39.8345 7.67137 39.8951 7.5938 39.9367 7.5059C39.9784 7.41799 40 7.32194 40 7.22467C40 7.12741 39.9784 7.03137 39.9367 6.94348C39.8951 6.85559 39.8344 6.77804 39.7591 6.71641ZM32.1852 12.2213L26.0655 7.22467L32.1852 2.22805L38.3049 7.22467L32.1852 12.2213Z"></path></svg>